<svg width="63" height="62" viewBox="0 0 63 62" fill="none" xmlns="http://www.w3.org/2000/svg">
<path d="M41.0931 23.25H9.78403C6.54187 23.25 3.91357 25.8523 3.91357 29.0625V42.625C3.91357 45.8352 6.54187 48.4375 9.78403 48.4375H41.0931C44.3353 48.4375 46.9636 45.8352 46.9636 42.625V29.0625C46.9636 25.8523 44.3353 23.25 41.0931 23.25Z" fill="#FF3D00"/>
<path d="M58.7045 44.5625L46.9636 38.75V32.9375L58.7045 27.125V44.5625Z" fill="#FF3D00"/>
<path d="M35.2227 19.375C39.5455 19.375 43.0499 15.9052 43.0499 11.625C43.0499 7.34479 39.5455 3.875 35.2227 3.875C30.8998 3.875 27.3954 7.34479 27.3954 11.625C27.3954 15.9052 30.8998 19.375 35.2227 19.375Z" fill="#FF3D00"/>
<path d="M15.6545 19.375C18.8967 19.375 21.525 16.7727 21.525 13.5625C21.525 10.3523 18.8967 7.75 15.6545 7.75C12.4123 7.75 9.78406 10.3523 9.78406 13.5625C9.78406 16.7727 12.4123 19.375 15.6545 19.375Z" fill="#FF3D00"/>
<path d="M59.2191 26.3016C59.0772 26.215 58.9153 26.1656 58.7487 26.1582C58.5822 26.1507 58.4164 26.1854 58.2672 26.2589L47.942 31.3701V29.0625C47.9399 27.2646 47.2177 25.541 45.9337 24.2697C44.6498 22.9984 42.9089 22.2833 41.0931 22.2813H9.78404C7.96825 22.2833 6.22742 22.9984 4.94345 24.2697C3.65949 25.541 2.93725 27.2646 2.93518 29.0625V42.625C2.93725 44.4229 3.65949 46.1465 4.94345 47.4178C6.22742 48.6891 7.96825 49.4042 9.78404 49.4063H23.0767L14.9628 57.4401C14.7845 57.6228 14.6859 57.8675 14.6882 58.1215C14.6904 58.3755 14.7933 58.6185 14.9747 58.7981C15.1561 58.9777 15.4015 59.0796 15.658 59.0818C15.9146 59.084 16.1617 58.9864 16.3462 58.8099L25.4386 49.8073L34.5309 58.8099C34.7155 58.9864 34.9626 59.084 35.2192 59.0818C35.4757 59.0796 35.7211 58.9777 35.9025 58.7981C36.0839 58.6185 36.1868 58.3755 36.189 58.1215C36.1913 57.8675 36.0926 57.6228 35.9144 57.4401L27.8005 49.4063H41.0931C42.9089 49.4042 44.6498 48.6891 45.9337 47.4178C47.2177 46.1465 47.9399 44.4229 47.942 42.625V40.3174L58.2672 45.4295C58.4164 45.5034 58.5821 45.5382 58.7488 45.5307C58.9154 45.5232 59.0773 45.4737 59.2192 45.3868C59.361 45.3 59.4781 45.1786 59.5593 45.0344C59.6404 44.8901 59.683 44.7276 59.6829 44.5625V27.125C59.6828 26.96 59.6402 26.7978 59.559 26.6537C59.4779 26.5096 59.3609 26.3884 59.2191 26.3016ZM45.9852 42.625C45.9836 43.9092 45.4677 45.1403 44.5506 46.0484C43.6335 46.9564 42.3901 47.4672 41.0931 47.4688H9.78404C8.48707 47.4672 7.24366 46.9564 6.32656 46.0484C5.40946 45.1403 4.89355 43.9092 4.892 42.625V29.0625C4.89355 27.7783 5.40946 26.5472 6.32656 25.6392C7.24366 24.7311 8.48707 24.2203 9.78404 24.2188H41.0931C42.3901 24.2203 43.6335 24.7311 44.5506 25.6392C45.4677 26.5472 45.9836 27.7783 45.9852 29.0625V42.625ZM57.7261 42.9951L47.942 38.1513V33.5362L57.7261 28.6924V42.9951ZM35.2227 20.3438C36.9643 20.3438 38.6668 19.8324 40.1149 18.8744C41.5629 17.9164 42.6916 16.5547 43.3581 14.9615C44.0246 13.3684 44.1989 11.6153 43.8592 9.92406C43.5194 8.23279 42.6807 6.67926 41.4492 5.45992C40.2177 4.24058 38.6487 3.4102 36.9406 3.07378C35.2324 2.73737 33.4619 2.91003 31.8529 3.56993C30.2439 4.22983 28.8686 5.34733 27.901 6.78113C26.9334 8.21492 26.417 9.9006 26.417 11.625C26.4196 13.9366 27.3482 16.1527 28.999 17.7873C30.6498 19.4218 32.8881 20.3412 35.2227 20.3438ZM35.2227 4.84375C36.5773 4.84375 37.9014 5.24147 39.0277 5.9866C40.154 6.73173 41.0318 7.79082 41.5502 9.02993C42.0686 10.269 42.2042 11.6325 41.9399 12.948C41.6757 14.2634 41.0234 15.4717 40.0656 16.4201C39.1077 17.3684 37.8874 18.0143 36.5588 18.276C35.2303 18.5376 33.8532 18.4033 32.6017 17.8901C31.3503 17.3768 30.2806 16.5076 29.5281 15.3925C28.7755 14.2773 28.3738 12.9662 28.3738 11.625C28.3759 9.82713 29.0981 8.10349 30.3821 6.8322C31.6661 5.56092 33.4069 4.84581 35.2227 4.84375ZM15.6545 20.3438C17.0091 20.3438 18.3332 19.946 19.4595 19.2009C20.5858 18.4558 21.4637 17.3967 21.982 16.1576C22.5004 14.9185 22.636 13.555 22.3718 12.2395C22.1075 10.9241 21.4552 9.71581 20.4974 8.76744C19.5395 7.81906 18.3192 7.17321 16.9906 6.91155C15.6621 6.6499 14.285 6.78419 13.0336 7.29745C11.7821 7.8107 10.7124 8.67987 9.95988 9.79504C9.20731 10.9102 8.80564 12.2213 8.80564 13.5625C8.80771 15.3604 9.52995 17.084 10.8139 18.3553C12.0979 19.6266 13.8387 20.3417 15.6545 20.3438ZM15.6545 8.71875C16.6221 8.71875 17.5679 9.00284 18.3724 9.53507C19.1769 10.0673 19.8039 10.8238 20.1742 11.7089C20.5444 12.594 20.6413 13.5679 20.4525 14.5075C20.2638 15.4471 19.7979 16.3101 19.1137 16.9876C18.4295 17.665 17.5579 18.1263 16.6089 18.3132C15.6599 18.5001 14.6763 18.4042 13.7824 18.0375C12.8885 17.6709 12.1245 17.0501 11.5869 16.2535C11.0494 15.457 10.7625 14.5205 10.7625 13.5625C10.764 12.2783 11.2799 11.0472 12.197 10.1392C13.1141 9.23111 14.3575 8.72029 15.6545 8.71875Z" fill="white"/>
</svg>
